<?xml version="1.0" standalone="no"?>
<!DOCTYPE svg PUBLIC "-//W3C//DTD SVG 1.1//EN"
  "http://www.w3.org/Graphics/SVG/1.1/DTD/svg11.dtd">
<svg width="70mm" height="59.999999999999986mm" viewBox="-35 -38.99999999999999 70 59.999999999999986" xmlns="http://www.w3.org/2000/svg" version="1.1">
	<title>svgOutput</title>
	<desc>made with tinkercad</desc>
<path d="M 34 -27.999999999999993 L 30 -27.999999999999993 L 30 9.999999999999998 L 34 9.999999999999998 L 34 19.999999999999996 L 28 19.999999999999996 L 24 19.999999999999996 L 24 9.999999999999998 L 28 9.999999999999998 L 28 -27.999999999999993 L 24 -27.999999999999993 L 24 -37.99999999999999 L 28 -37.99999999999999 L 30 -37.99999999999999 L 34 -37.99999999999999 L 34 -27.999999999999993 M -34 -37.99999999999999 L -30 -37.99999999999999 L -28 -37.99999999999999 L -24 -37.99999999999999 L -24 -27.999999999999993 L -28 -27.999999999999993 L -28 9.999999999999998 L -24 9.999999999999998 L -24 19.999999999999996 L -28 19.999999999999996 L -30 19.999999999999996 L -34 19.999999999999996 L -34 9.999999999999998 L -30 9.999999999999998 L -30 -27.999999999999993 L -34 -27.999999999999993 L -34 -37.99999999999999 z" fill="none" stroke="rgb(255,0,0)" stroke-width="0.001mm" />
</svg>